<?xml version="1.0" encoding="UTF-8"?>
<svg version="1.1" xmlns="http://www.w3.org/2000/svg" width="512" height="512">
<path d="M0 0 C1.9062656 -0.00542572 3.812527 -0.0125509 5.71878052 -0.02124023 C10.87795063 -0.03942419 16.03679958 -0.03242605 21.19597507 -0.01972389 C26.60584272 -0.00956922 32.01568359 -0.01899655 37.42555237 -0.02526855 C46.51015132 -0.03253839 55.59462005 -0.02297529 64.67919922 -0.00390625 C75.16696569 0.0178546 85.65442099 0.01081408 96.14217991 -0.01121187 C105.1615783 -0.02939258 114.18088327 -0.03191093 123.20029408 -0.0214572 C128.58063259 -0.01523612 133.96082509 -0.01434834 139.3411541 -0.02760315 C144.40153488 -0.03919965 149.46151651 -0.03106657 154.5218544 -0.00802612 C156.37370836 -0.00275902 158.22559619 -0.00421837 160.07743645 -0.01307678 C170.96329178 -0.06032941 179.47166149 0.36638287 188.98657227 6.20507812 C195.42312376 12.82042271 199.46842917 20.11107005 199.51123047 29.47192383 C199.52076248 30.62364578 199.53029449 31.77536774 199.54011536 32.96199036 C199.53874825 34.80901802 199.53874825 34.80901802 199.53735352 36.69335938 C199.54163864 37.97309128 199.54592377 39.25282318 199.55033875 40.57133484 C199.55777876 43.27538201 199.55752662 45.97929858 199.55224609 48.68334961 C199.5464647 52.12622104 199.56336032 55.56855217 199.58659077 59.01133442 C199.60498526 62.32203055 199.60114029 65.63261261 199.59985352 68.94335938 C199.60906326 70.16863846 199.61827301 71.39391754 199.62776184 72.65632629 C199.57725881 82.07116078 198.61867498 89.74578659 191.98657227 96.83007812 C191.25954102 97.63058594 190.53250977 98.43109375 189.78344727 99.25585938 C186.77644695 101.92618634 183.7806577 103.62883991 180.23657227 105.51757812 C178.03107875 124.13655419 178.03107875 124.13655419 184.5324707 140.95874023 C187.02932665 143.8545199 189.60773332 146.65002515 192.26977539 149.39453125 C195.5639836 152.95044418 198.30222203 156.88832371 201.11157227 160.83007812 C206.84009302 168.68875751 212.71000345 176.43366561 218.64428711 184.13793945 C230.68844921 199.83433206 230.68844921 199.83433206 234.54907227 207.64257812 C235.01958008 208.57328125 235.49008789 209.50398437 235.97485352 210.46289062 C238.81260461 217.33323537 239.53655312 223.61895576 239.55541992 230.96289062 C239.56546555 231.8711409 239.57551117 232.77939117 239.58586121 233.71516418 C239.61653501 236.69096291 239.63368417 239.66667233 239.65063477 242.64257812 C239.66935914 244.71623494 239.68893349 246.78988425 239.70932007 248.86352539 C239.76051313 254.30169226 239.80020738 259.7398838 239.83746338 265.17816162 C239.87758361 270.73537229 239.92863929 276.29248149 239.97875977 281.84960938 C240.07536713 292.73886087 240.15982033 303.62816984 240.23657227 314.51757812 C244.19087814 312.31265785 248.14354381 310.10481271 252.09594727 307.89648438 C253.20244629 307.27954712 254.30894531 306.66260986 255.44897461 306.02697754 C261.4301189 302.6832142 267.37527486 299.29272693 273.25965881 295.78123474 C293.86543637 283.51021981 317.07722628 278.12362056 340.92407227 284.08007812 C362.29907274 290.47031264 379.18962788 303.99015499 390.45141602 323.17773438 C400.76944039 342.48169682 402.91261219 364.4351441 397.23657227 385.51757812 C388.1003352 415.55675497 365.24720936 429.87649075 339.44497681 444.55114746 C333.35954576 448.01239631 327.2979445 451.51443112 321.23657227 455.01757812 C319.07001138 456.26776146 316.9033445 457.51776113 314.73657227 458.76757812 C313.66407227 459.38632812 312.59157227 460.00507813 311.48657227 460.64257812 C308.23657227 462.51757813 304.98657227 464.39257812 301.73657227 466.26757812 C300.66366943 466.88656982 299.5907666 467.50556152 298.48535156 468.14331055 C296.32278643 469.39092552 294.16018887 470.63848429 291.99755859 471.88598633 C285.40699654 475.68783274 278.81769049 479.49184494 272.22924805 483.29736328 C268.97383774 485.17635399 265.71665707 487.05224521 262.45922852 488.92773438 C258.41743025 491.25551427 254.3842484 493.59718032 250.35766602 495.95117188 C232.07188284 506.60230922 232.07188284 506.60230922 223.23657227 509.51757812 C222.33551758 509.83210938 221.43446289 510.14664062 220.50610352 510.47070312 C199.34961832 516.6192193 176.87497648 512.83934123 157.83032227 502.58398438 C149.55099782 497.93115863 138.20001853 490.14775223 134.25000954 481.31032276 C132.86796329 478.44932358 131.62818899 476.63041893 129.23657227 474.51757812 C123.90234031 473.15535214 118.60132605 473.36157946 113.14038086 473.4675293 C111.48410406 473.46675344 109.827825 473.46196053 108.17156982 473.45346069 C104.60897016 473.44376642 101.04804567 473.46238682 97.48566818 473.50307274 C91.84440827 473.56727905 86.20420755 473.56812773 80.56265259 473.56062317 C71.63075666 473.55622955 62.69962199 473.59417157 53.76791918 473.65019161 C37.7978162 473.74968536 21.82761446 473.79160044 5.85721457 473.79693204 C0.25878001 473.80065218 -5.33893134 473.82727745 -10.93717504 473.87301004 C-14.4340011 473.89808312 -17.93074384 473.90681242 -21.42765045 473.91176987 C-23.03843913 473.91757972 -24.64922146 473.93025665 -26.25989151 473.95065117 C-41.88467905 474.14244041 -55.33517438 470.73805855 -67.01342773 459.76757812 C-77.02280101 449.13261902 -81.92014674 435.72377884 -81.90386963 421.2658844 C-81.90684075 420.43844552 -81.90981187 419.61100663 -81.91287303 418.75849384 C-81.92154026 415.9875045 -81.92306663 413.21655846 -81.92456055 410.44555664 C-81.92919029 408.45770679 -81.93421516 406.46985782 -81.93960571 404.48200989 C-81.95272065 399.0807121 -81.95917344 393.67942674 -81.96361637 388.27811551 C-81.96654985 384.89980926 -81.97065528 381.52150638 -81.97512054 378.14320183 C-81.98879593 367.56271492 -81.99846118 356.98223575 -82.00232244 346.40174061 C-82.00679701 334.20884258 -82.02431683 322.01605699 -82.05332303 309.82319313 C-82.07498792 300.38685586 -82.08502935 290.9505501 -82.08636355 281.51418823 C-82.08740856 275.88439511 -82.09325089 270.25470769 -82.11118317 264.62494087 C-82.12774602 259.32174251 -82.12977968 254.01872835 -82.12104416 248.71551323 C-82.12027804 246.77825296 -82.12455978 244.84098246 -82.13450241 242.90374756 C-82.2638146 216.11842574 -82.2638146 216.11842574 -75.20092773 204.45507812 C-74.85288086 203.87894775 -74.50483398 203.30281738 -74.14624023 202.70922852 C-70.60856611 196.99566605 -66.49657201 191.72685799 -62.31225586 186.47900391 C-59.16190461 182.48941974 -56.09307425 178.43681393 -53.01342773 174.39257812 C-51.99055664 173.05078491 -51.99055664 173.05078491 -50.94702148 171.68188477 C-44.69566154 163.46373043 -38.4719238 155.21493093 -32.47436523 146.80883789 C-30.76342773 144.51757812 -30.76342773 144.51757812 -28.61499023 142.05249023 C-22.23824408 134.38294957 -21.61679543 128.12022831 -21.76342773 118.33007812 C-21.75531406 116.98304638 -21.7436169 115.63603127 -21.72827148 114.2890625 C-21.70491123 111.03030721 -21.7173773 107.77596607 -21.76342773 104.51757812 C-22.93035156 104.31636353 -22.93035156 104.31636353 -24.12084961 104.11108398 C-29.88402833 102.81671153 -34.31745642 97.76838253 -37.41967773 92.93945312 C-40.46031991 87.0349503 -41.88058235 81.88860456 -41.90869141 75.22753906 C-41.91507126 74.19586609 -41.92145111 73.16419312 -41.92802429 72.10125732 C-41.92913712 70.99598694 -41.93024994 69.89071655 -41.93139648 68.75195312 C-41.93638908 67.02999725 -41.93638908 67.02999725 -41.94148254 65.27325439 C-41.94654079 62.84574788 -41.94889121 60.41823443 -41.94873047 57.99072266 C-41.95091147 54.29512931 -41.96906414 50.59983722 -41.98803711 46.90429688 C-41.99097243 44.54101664 -41.9929563 42.177735 -41.99389648 39.81445312 C-42.001082 38.71727966 -42.00826752 37.6201062 -42.01567078 36.48968506 C-41.97939469 24.17671284 -39.83005988 15.58421027 -30.95092773 6.70507812 C-20.97335142 -0.14227817 -11.74426216 -0.0561124 0 0 Z M-17.76342773 23.51757812 C-21.64671475 28.60937341 -21.19909939 34.26024263 -21.16186523 40.39257812 C-21.16473541 41.43526855 -21.16760559 42.47795898 -21.17056274 43.55224609 C-21.17259907 45.75098211 -21.1670995 47.94973641 -21.15454102 50.1484375 C-21.1384818 53.50627301 -21.154405 56.86290488 -21.17358398 60.22070312 C-21.17160148 62.36133077 -21.16775765 64.50195767 -21.16186523 66.64257812 C-21.16793793 67.64272949 -21.17401062 68.64288086 -21.18026733 69.67333984 C-21.12742185 74.93290026 -21.07236903 79.1788693 -17.76342773 83.51757812 C-12.70477113 86.14398015 -8.94939742 86.89352063 -3.17321777 86.89852905 C-2.07522094 86.90554901 -2.07522094 86.90554901 -0.95504236 86.91271079 C1.4807621 86.9246105 3.91599869 86.9152236 6.35180664 86.90576172 C8.10500922 86.90982966 9.85820924 86.91517279 11.61140442 86.92169189 C16.36137261 86.93534479 21.11114488 86.93007521 25.86111641 86.92055464 C30.83730717 86.91294756 35.81348141 86.92000657 40.78967285 86.92471313 C49.14553838 86.93016762 57.5013243 86.9229871 65.85717773 86.90869141 C75.51104217 86.8923655 85.16471651 86.89765422 94.81857634 86.91417062 C103.11431614 86.92779421 111.40999879 86.92970088 119.70574617 86.92185462 C124.65731197 86.91718291 129.60878848 86.91653946 134.56034851 86.92646408 C139.21599391 86.93514414 143.87139474 86.92909282 148.52701378 86.91178131 C150.23338605 86.90782203 151.93977897 86.90894095 153.64614296 86.91556931 C155.9798252 86.92379718 158.31272931 86.91344895 160.6463623 86.89852905 C162.60305721 86.89683244 162.60305721 86.89683244 164.59928131 86.89510155 C169.47226932 86.38932207 173.55494894 85.15830178 177.14881897 81.65184021 C178.47020917 79.05916316 178.6231731 77.27581731 178.640625 74.36938477 C178.65330917 73.34474625 178.66599335 72.32010773 178.67906189 71.26441956 C178.67612625 70.16331345 178.67319061 69.06220734 178.67016602 67.92773438 C178.67540787 66.7910582 178.68064972 65.65438202 178.68605042 64.48326111 C178.69247216 62.08007626 178.69113169 59.67685999 178.68261719 57.27368164 C178.67411199 53.59724918 178.70286129 49.92237252 178.73461914 46.24609375 C178.73623135 43.91080776 178.73565325 41.57551901 178.73266602 39.24023438 C178.74951698 37.59161156 178.74951698 37.59161156 178.76670837 35.90968323 C178.72607724 31.45807668 178.69601051 28.37976145 176.58056641 24.40991211 C171.78134915 20.53544768 166.76465207 20.26631432 160.76661682 20.25688171 C160.03547336 20.25305617 159.3043299 20.24923062 158.55103058 20.24528915 C156.11223404 20.23500788 153.67367509 20.23894195 151.23486328 20.24291992 C149.48180932 20.23857077 147.72875725 20.23338694 145.97570801 20.22743225 C141.22159123 20.21405341 136.467554 20.21346231 131.71342206 20.21599555 C127.74221977 20.21706594 123.77103352 20.21218017 119.79983467 20.20739013 C110.43034629 20.19629895 101.06089801 20.19585545 91.69140625 20.2019043 C82.03018629 20.20794562 72.36911192 20.19562815 62.7079168 20.17433423 C54.40795799 20.15671419 46.10804551 20.15071748 37.80806869 20.15397197 C32.85312595 20.15578421 27.89828707 20.15315444 22.94336128 20.13925743 C18.28363878 20.12667707 13.62414317 20.12862519 8.96442413 20.14166832 C7.25643525 20.14403313 5.54843038 20.14130282 3.84045982 20.1330452 C1.50454804 20.12256781 -0.83060381 20.13068577 -3.16648865 20.14335632 C-4.47225074 20.14318858 -5.77801283 20.14302084 -7.12334347 20.14284801 C-11.3721243 20.58024067 -13.98664623 21.55594501 -17.76342773 23.51757812 Z M-0.76342773 106.51757812 C-1.09342773 117.73757812 -1.42342773 128.95757812 -1.76342773 140.51757812 C-6.10685278 148.87031859 -6.10685278 148.87031859 -10.10180664 152.78027344 C-13.60487351 156.44289815 -16.48785052 160.64825192 -19.51342773 164.70507812 C-20.9007926 166.52167935 -22.29011896 168.33678423 -23.68139648 170.15039062 C-28.03022417 175.84857228 -32.28866988 181.61013935 -36.51953125 187.39624023 C-39.59523206 191.59686441 -42.70422518 195.76717372 -45.86499023 199.90429688 C-46.54682373 200.80011475 -47.22865723 201.69593262 -47.93115234 202.61889648 C-49.2409994 204.33659631 -50.55658568 206.04994063 -51.87890625 207.75805664 C-56.57086718 213.92439782 -59.76342773 218.52240185 -59.76342773 226.51757812 C31.97657227 226.51757812 123.71657227 226.51757812 218.23657227 226.51757812 C216.55322368 218.20994955 216.55322368 218.20994955 212.61157227 211.76757812 C212.2289624 211.23793457 211.84635254 210.70829102 211.45214844 210.16259766 C210.06758295 208.26468972 208.65543171 206.38998904 207.23657227 204.51757812 C206.65504395 203.74833008 206.07351563 202.97908203 205.47436523 202.18652344 C202.11806973 197.75693869 198.74344303 193.34171648 195.36157227 188.93164062 C191.5291546 183.92125503 187.77572211 178.85691893 184.04907227 173.76757812 C179.40301398 167.42732557 174.70022749 161.13552046 169.92407227 154.89257812 C169.36631104 154.16329102 168.8085498 153.43400391 168.23388672 152.68261719 C165.86675731 149.48763402 165.86675731 149.48763402 163.23657227 146.51757812 C160.18350575 146.41350277 157.15231513 146.37396953 154.09863281 146.37573242 C153.13930847 146.372258 152.17998413 146.36878357 151.19158936 146.36520386 C149.10063448 146.35783183 147.0096717 146.3524942 144.91870689 146.34891319 C141.61157691 146.34177158 138.30459736 146.32612244 134.99751282 146.30757141 C125.59195014 146.25499298 116.18646819 146.20711024 106.78076172 146.19165039 C101.03472047 146.18158449 95.28905456 146.15229306 89.54316139 146.11033058 C87.34991097 146.09799351 85.15660758 146.09290423 82.96332359 146.09512901 C79.89603841 146.09747457 76.82983466 146.07537115 73.76269531 146.04760742 C72.85292435 146.05420883 71.94315338 146.06081024 71.0058136 146.06761169 C64.87759379 145.9763339 64.87759379 145.9763339 61.69587708 143.69929504 C59.63921835 140.62451101 59.36543793 138.19024964 59.23657227 134.51757812 C60.27175216 130.63565352 60.82032088 129.79507905 64.23657227 127.51757812 C67.2555513 127.30362411 70.18526813 127.20624669 73.20605469 127.19873047 C74.1233284 127.18868484 75.04060211 127.17863922 75.985672 127.16828918 C79.02112189 127.13736954 82.05648324 127.12039762 85.09204102 127.10351562 C87.19526435 127.08481105 89.29848013 127.06523817 91.40168762 127.04483032 C96.94021149 126.99342814 102.47875971 126.95384569 108.01739502 126.91668701 C113.66798974 126.87669803 119.31848246 126.82558243 124.96899414 126.77539062 C136.05812244 126.67853553 147.14729256 126.59518952 158.23657227 126.51757812 C158.23657227 119.91757813 158.23657227 113.31757812 158.23657227 106.51757812 C105.76657227 106.51757812 53.29657227 106.51757812 -0.76342773 106.51757812 Z M-60.76342773 246.51757812 C-60.76342773 294.69757813 -60.76342773 342.87757813 -60.76342773 392.51757812 C-27.39152756 392.86719818 -27.39152756 392.86719818 5.98071289 393.10351562 C19.59039572 393.17471958 33.19918703 393.25841974 46.80810547 393.42285156 C56.7195929 393.54255141 66.63035713 393.61989787 76.54254729 393.64664006 C81.79026649 393.66227057 87.03591706 393.69893096 92.28297234 393.78633881 C97.22565909 393.86800659 102.16543293 393.89287823 107.10873032 393.8748703 C108.91923823 393.87816258 110.72984689 393.90191761 112.53977013 393.94804382 C122.57242844 394.38590629 122.57242844 394.38590629 131.19369698 389.95005035 C133.48115388 386.90653435 135.33246482 383.80911529 137.23657227 380.51757812 C145.49826358 370.67835167 155.21896561 364.81448916 166.23657227 358.51757812 C168.24638763 357.35211911 170.25546766 356.18539136 172.26391602 355.01757812 C176.38445172 352.62718984 180.51023523 350.24644097 184.64282227 347.87695312 C195.85141548 341.44239035 207.04177582 334.97611453 218.23657227 328.51757812 C218.23657227 301.45757812 218.23657227 274.39757812 218.23657227 246.51757812 C126.16657227 246.51757812 34.09657227 246.51757812 -60.76342773 246.51757812 Z M257.98120117 328.90966797 C252.42848474 332.1626648 246.83490251 335.34387683 241.23657227 338.51757812 C241.90670621 341.90899592 243.21203282 344.52885562 244.90454102 347.53320312 C245.46069092 348.52441162 246.01684082 349.51562012 246.58984375 350.53686523 C247.19513916 351.60300049 247.80043457 352.66913574 248.42407227 353.76757812 C249.05192627 354.88076416 249.67978027 355.9939502 250.32666016 357.14086914 C255.6881673 366.61765913 261.16339015 376.02695528 266.67016602 385.41992188 C270.38992133 391.76804419 274.06553585 398.14119287 277.73657227 404.51757812 C284.85605972 416.87862946 292.03542467 429.20393474 299.23657227 441.51757812 C303.06948713 440.9354118 305.80810833 439.82837705 309.13110352 437.84960938 C310.07518066 437.29289551 311.01925781 436.73618164 311.99194336 436.16259766 C313.50522217 435.25550049 313.50522217 435.25550049 315.04907227 434.33007812 C317.20372237 433.05223208 319.35867945 431.77490353 321.51391602 430.49804688 C322.62105957 429.83981934 323.72820312 429.1815918 324.86889648 428.50341797 C328.16506829 426.55974235 331.47911364 424.65172294 334.80297852 422.75585938 C335.860896 422.14959717 336.91881348 421.54333496 338.00878906 420.91870117 C340.01599371 419.76971905 342.02637961 418.62626901 344.04052734 417.48950195 C360.35624599 408.09199916 371.95053604 396.38122829 377.27172852 377.92773438 C381.36751008 360.38254915 378.36565295 344.81221359 369.35571289 329.30517578 C361.20677394 316.28891684 347.27514565 307.42532455 332.46313477 303.91235352 C303.76758911 298.82455776 281.49253891 315.08016046 257.98120117 328.90966797 Z M213.17407227 354.58007812 C211.64757592 355.49685517 210.12016989 356.41211861 208.59204102 357.32617188 C207.32432861 358.08583252 207.32432861 358.08583252 206.03100586 358.86083984 C201.84587813 361.34208017 197.62486395 363.75973127 193.40478516 366.1809082 C188.95902293 368.73227592 184.52159375 371.29787722 180.08618164 373.8671875 C178.38043858 374.85509215 176.67373381 375.84134332 174.96508789 376.82421875 C167.22645096 381.29212743 160.56928705 386.19639834 154.23657227 392.51757812 C153.66293945 393.07960938 153.08930664 393.64164062 152.49829102 394.22070312 C141.24371726 406.20231653 138.43801805 421.83608172 138.88891602 437.63085938 C139.72187677 453.12273515 147.51679996 465.77886629 158.23657227 476.51757812 C158.80118164 477.09378906 159.36579102 477.67 159.94750977 478.26367188 C171.1328454 488.76697485 185.85898091 492.10716073 200.71044922 491.921875 C218.71810129 491.31955643 232.0338459 482.42774829 247.23657227 473.51757812 C249.43514856 472.24303176 251.63436043 470.96958106 253.83422852 469.69726562 C263.01231177 464.37661751 272.15036666 458.99372213 281.23657227 453.51757812 C279.97896157 449.40860525 278.45681034 445.86350826 276.28735352 442.15820312 C275.39777954 440.62848877 275.39777954 440.62848877 274.49023438 439.06787109 C273.84965088 437.97877441 273.20906738 436.88967773 272.54907227 435.76757812 C271.87474512 434.61182933 271.20100908 433.45573546 270.52783203 432.29931641 C269.1292743 429.89777265 267.72818933 427.49773009 266.32543945 425.09863281 C263.08181332 419.54525972 259.88136637 413.96698006 256.67407227 408.39257812 C251.2575108 398.99478751 245.80032358 389.62137058 240.32568359 380.25732422 C234.56028813 370.3834747 228.88732662 360.45738368 223.23657227 350.51757812 C219.13723098 350.51757812 216.5711062 352.50269196 213.17407227 354.58007812 Z M-60.76342773 413.51757812 C-60.77011315 430.61563927 -60.77011315 430.61563927 -52.00952148 444.33007812 C-42.99699358 452.79585776 -34.14125724 452.94811847 -22.35131836 452.8581543 C-20.79350806 452.85730708 -19.23569657 452.85778501 -17.67788696 452.85948181 C-13.46764507 452.86033951 -9.25766167 452.84275049 -5.04747963 452.82175994 C-0.64059397 452.80295537 3.76629818 452.80123972 8.17321777 452.79768372 C16.50992695 452.78837433 24.84651755 452.76377558 33.18317461 452.73363525 C42.67772138 452.70005673 52.17227394 452.68359656 61.66686535 452.66854894 C81.19016812 452.63722501 100.71336064 452.58448611 120.23657227 452.51757812 C120.07424103 451.25945816 119.91190979 450.0013382 119.74465942 448.70509338 C119.3135484 445.36384252 119.10789975 442.10562228 119.10375977 438.73242188 C119.1024707 437.70697266 119.10118164 436.68152344 119.09985352 435.625 C119.1037207 434.57892578 119.10758789 433.53285156 119.11157227 432.45507812 C119.10770508 431.40513672 119.10383789 430.35519531 119.09985352 429.2734375 C119.10178711 427.73719727 119.10178711 427.73719727 119.10375977 426.16992188 C119.1048877 425.25202881 119.10601562 424.33413574 119.10717773 423.38842773 C119.25629309 420.08003629 119.76822006 416.79604355 120.23657227 413.51757812 C60.50657227 413.51757812 0.77657227 413.51757812 -60.76342773 413.51757812 Z " fill="#000000" transform="translate(96.763427734375,-0.517578125)"/>
<path d="M0 0 C2.87029869 1.79393668 4.49131638 2.98263276 6 6 C6.08649451 8.48099734 6.11565054 10.93344928 6.09765625 13.4140625 C6.0962413 14.14370209 6.09482635 14.87334167 6.09336853 15.62509155 C6.08776531 17.95843585 6.07521235 20.29168464 6.0625 22.625 C6.05748541 24.20572778 6.05292243 25.78645707 6.04882812 27.3671875 C6.03779484 31.24482854 6.02052811 35.12239807 6 39 C6.87213135 38.98428955 7.7442627 38.9685791 8.64282227 38.95239258 C11.90623018 38.90099179 15.16920232 38.86351907 18.43286133 38.83520508 C19.84015734 38.82020123 21.24740724 38.79979137 22.65454102 38.77368164 C24.68777907 38.73692335 26.72039432 38.72019016 28.75390625 38.70703125 C29.97408447 38.6913208 31.1942627 38.67561035 32.45141602 38.65942383 C37.26313416 39.12122959 41.22336772 40.4526106 44.9375 43.6875 C46.51074793 47.11162784 46.67423786 50.34606578 46 54 C44.20636089 56.8100346 42.98119065 58.50940468 40 60 C37.44637396 60.08658569 34.9204558 60.11562516 32.3671875 60.09765625 C31.23943405 60.09553383 31.23943405 60.09553383 30.08889771 60.09336853 C27.6842249 60.08776465 25.27964473 60.07521157 22.875 60.0625 C21.24609509 60.0574855 19.61718873 60.0529225 17.98828125 60.04882812 C13.99215173 60.03779397 9.99609158 60.02052679 6 60 C6.02094727 61.00377686 6.04189453 62.00755371 6.06347656 63.04174805 C6.13606694 66.77825566 6.18186811 70.51470137 6.21972656 74.25170898 C6.23979892 75.86672458 6.2670633 77.48166789 6.30175781 79.09643555 C6.35047215 81.42254501 6.37301154 83.74769093 6.390625 86.07421875 C6.41127014 86.79212082 6.43191528 87.51002289 6.45318604 88.24967957 C6.45480378 91.89253743 6.10047711 93.84485457 4.10058594 96.93286133 C1.26421991 99.72406439 -0.42734357 100.20522846 -4.3125 100.375 C-8.10537004 100.34446159 -8.83226566 100.12929522 -12 97.6875 C-15.18034181 93.41391569 -15.13621439 89.82051786 -15.09765625 84.70703125 C-15.0962413 84.00100266 -15.09482635 83.29497406 -15.09336853 82.56755066 C-15.08777764 80.31582374 -15.07522688 78.06419679 -15.0625 75.8125 C-15.05748382 74.28450665 -15.05292112 72.75651173 -15.04882812 71.22851562 C-15.0378112 67.48563865 -15.02055287 63.74283627 -15 60 C-16.00377686 60.02618408 -17.00755371 60.05236816 -18.04174805 60.0793457 C-21.77817352 60.17008168 -25.51450235 60.22733262 -29.25170898 60.2746582 C-30.86678461 60.29974959 -32.48174726 60.33383126 -34.09643555 60.37719727 C-36.42264706 60.43809286 -38.74735359 60.46626124 -41.07421875 60.48828125 C-42.15107185 60.52699089 -42.15107185 60.52699089 -43.24967957 60.56648254 C-47.15141964 60.56864843 -48.83436161 60.13078167 -51.93286133 57.68432617 C-54.53501147 54.30524966 -55 52.25132734 -55 48 C-54 44.75 -54 44.75 -52 42 C-47.03931443 39.4140904 -43.42281309 38.63404103 -37.75390625 38.70703125 C-37.09792953 38.71127609 -36.44195282 38.71552094 -35.76609802 38.71989441 C-33.69779089 38.73651221 -31.63050599 38.77412762 -29.5625 38.8125 C-28.14910275 38.82756889 -26.73569002 38.84125341 -25.32226562 38.85351562 C-21.88118565 38.88635896 -18.44069281 38.93801985 -15 39 C-15.01571045 38.09233887 -15.0314209 37.18467773 -15.04760742 36.24951172 C-15.0989313 32.86126928 -15.13644416 29.47344381 -15.16479492 26.08496094 C-15.17982196 24.62232925 -15.20024955 23.15974218 -15.22631836 21.69726562 C-15.26297267 19.5871272 -15.27978676 17.47758774 -15.29296875 15.3671875 C-15.3086792 14.09987793 -15.32438965 12.83256836 -15.34057617 11.52685547 C-14.96625487 7.65055043 -14.05914626 5.28704436 -12 2 C-7.98141405 -0.6790573 -4.72358279 -0.69610694 0 0 Z " fill="#000000" transform="translate(180,273)"/>
<path d="M0 0 C2.87029869 1.79393668 4.49131638 2.98263276 6 6 C6.5811138 13.08958838 6.5811138 13.08958838 4.125 16.9375 C0.64240255 20.31766811 -2.03637499 20.40798732 -6.73828125 20.33984375 C-9 20 -9 20 -12 17.9375 C-14.40813237 14.40055558 -15 12.27436594 -15 8 C-12.09343948 0.29761462 -7.71725419 -1.13727956 0 0 Z " fill="#000000" transform="translate(130,126)"/>
</svg>
