<?xml version="1.0" encoding="UTF-8"?>
<svg version="1.1" xmlns="http://www.w3.org/2000/svg" width="512" height="512">
<path d="M0 0 C1.63325226 -0.00744736 1.63325226 -0.00744736 3.29949951 -0.01504517 C6.89042807 -0.02961058 10.48131241 -0.03646067 14.07226562 -0.04199219 C16.5822347 -0.04774977 19.09220378 -0.05350742 21.60217285 -0.05926514 C26.19290866 -0.06842109 30.78363193 -0.0747268 35.37437582 -0.07776189 C41.4247836 -0.08178591 47.47503551 -0.09401137 53.52539062 -0.12011719 C60.04334513 -0.14779871 66.56116623 -0.16051879 73.07917786 -0.16243744 C75.55085869 -0.16544509 78.02253906 -0.17340896 80.4941864 -0.18662262 C93.33734978 -0.25036346 105.51890178 -0.21992614 117.97851562 3.16113281 C118.73334229 3.35315781 119.48816895 3.5451828 120.26586914 3.74302673 C148.12789213 11.29603516 171.83830645 31.36461933 186.29101562 56.03613281 C194.29995349 70.7082444 198.86196121 86.45131853 199.97851562 103.16113281 C200.92726563 103.24363281 201.87601562 103.32613281 202.85351562 103.41113281 C212.05798755 104.78438064 219.0718645 109.13398033 225.97851562 115.16113281 C226.584375 115.63808594 227.19023437 116.11503906 227.81445312 116.60644531 C236.23992548 123.88818838 242.15377363 137.16457285 242.97851562 148.16113281 C243.04683594 149.01707031 243.11515625 149.87300781 243.18554688 150.75488281 C243.71697608 164.45394664 239.62237778 177.11919998 230.60351562 187.41113281 C229.08019405 189.01212374 227.53979864 190.59713924 225.97851562 192.16113281 C225.11226563 193.04478516 225.11226563 193.04478516 224.22851562 193.94628906 C217.34288766 200.41811727 209.21276233 203.24264624 199.97851562 204.16113281 C200.02492188 205.28648437 200.07132812 206.41183594 200.11914062 207.57128906 C200.64211742 225.71838509 196.6959924 240.36072719 184.66601562 254.47363281 C176.63008717 262.95826793 167.03029683 268.47720574 155.97851562 272.16113281 C157.67823534 275.80058732 159.59191375 277.9805907 162.97851562 280.16113281 C169.67662054 281.67307237 176.84684057 281.10048233 183.66601562 280.97363281 C187.39919574 280.93874328 191.13189932 280.9259287 194.86523438 280.93066406 C195.75836334 280.93148987 196.65149231 280.93231567 197.57168579 280.9331665 C210.46163796 281.07009037 220.68312384 284.45086631 230.26757812 293.26660156 C241.22291558 304.85792303 243.57428943 317.3812682 243.22851562 332.76660156 C242.93739429 339.5715627 242.15162999 345.7742212 237.45727539 350.93041992 C233.52508131 356.41418066 234.18582961 362.81358071 234.17382812 369.30957031 C234.16027579 370.69048928 234.14584592 372.07139989 234.13058472 373.45230103 C234.10525042 376.33886342 234.09986551 379.22467175 234.10693359 382.11132812 C234.11302851 385.7899146 234.05515547 389.46438374 233.98027229 393.14209557 C233.93190516 395.99238229 233.925238 398.84169279 233.92992783 401.69234085 C233.92396673 403.70038062 233.87775745 405.70817298 233.83059692 407.71566772 C233.91548963 414.51444007 234.39836022 418.36992389 239.36083984 423.24169922 C240.15255585 423.88748932 240.94427185 424.53327942 241.75997925 425.19863892 C247.96742989 430.68968433 250.63964342 440.14589128 251.31445312 448.14160156 C251.6026513 461.49635863 249.42732863 472.15321845 239.97851562 482.16113281 C230.71859798 491.65805018 221.21774946 495.41603331 208.10351562 496.47363281 C195.56412827 496.09288218 185.28316243 491.07071683 176.31054688 482.64941406 C167.24272878 472.97403697 164.32898082 461.93128618 164.63085938 448.91113281 C165.49721381 439.56618611 169.01927034 431.39168375 174.97851562 424.16113281 C176.49300293 422.97342285 176.49300293 422.97342285 178.03808594 421.76171875 C181.68869173 418.10669292 181.7148815 414.706454 181.8107605 409.70559692 C181.80166656 408.62100189 181.79257263 407.53640686 181.78320312 406.41894531 C181.79690948 405.29543671 181.81061584 404.1719281 181.82473755 403.01437378 C181.86202665 399.43788573 181.85832296 395.86278763 181.85351562 392.28613281 C181.87164295 389.85642362 181.89244574 387.42673281 181.91601562 384.99707031 C181.96785743 379.05152498 181.98294662 373.10689176 181.97851562 367.16113281 C178.01851563 367.49113281 174.05851562 367.82113281 169.97851562 368.16113281 C169.64980469 369.19109375 169.32109375 370.22105469 168.98242188 371.28222656 C157.71273718 405.47220491 134.96155968 431.10383229 103.61523438 448.41894531 C101.97851562 449.16113281 101.97851562 449.16113281 99.97851562 449.16113281 C99.79869141 451.0521875 99.79869141 451.0521875 99.61523438 452.98144531 C97.53780123 471.52244546 93.08816534 488.17937046 78.97851562 501.16113281 C65.51335517 511.34631829 52.44146663 513.35106547 35.97851562 512.16113281 C23.47461946 509.90744469 11.70374799 502.22347694 4.36132812 491.88378906 C-3.38521596 479.68587262 -8.02148438 463.6627692 -8.02148438 449.16113281 C-8.88128906 448.9071875 -9.74109375 448.65324219 -10.62695312 448.39160156 C-36.75196637 438.92166005 -58.79652241 412.95848403 -70.39648438 388.47363281 C-73.44995981 381.85124806 -75.90000143 375.14434751 -78.02148438 368.16113281 C-81.98148437 367.83113281 -85.94148438 367.50113281 -90.02148438 367.16113281 C-90.05159628 374.29689162 -90.03606023 381.43056875 -89.97875977 388.56616211 C-89.96564412 390.99190799 -89.96486357 393.41775392 -89.97680664 395.84350586 C-89.99184362 399.33709762 -89.96209445 402.82792362 -89.92382812 406.32128906 C-89.93808334 407.40072281 -89.95233856 408.48015656 -89.96702576 409.59230042 C-89.86280414 415.04895216 -89.54255104 418.29500577 -85.58325195 422.24584961 C-84.40244954 423.22544224 -83.21595593 424.19825496 -82.02148438 425.16113281 C-74.36270182 435.22515286 -71.71896035 446.66275624 -73.02148438 459.16113281 C-75.63737118 472.01888151 -81.49011827 481.35633399 -92.02148438 489.16113281 C-102.61236224 495.91324588 -113.75034577 497.20881368 -126.02148438 495.16113281 C-138.18084435 492.09347729 -147.67962953 484.69545712 -154.34179688 474.05175781 C-160.13302507 462.98407726 -161.03414662 449.61414305 -157.45898438 437.66113281 C-154.98257641 431.25935477 -151.18300009 425.30986082 -145.44555664 421.41040039 C-141.80957617 417.74311151 -142.38882434 413.04593822 -142.32675171 408.16885376 C-142.33570384 406.82512521 -142.34595941 405.4814048 -142.35742188 404.13769531 C-142.35405014 402.74913102 -142.34919453 401.36056962 -142.34292603 399.97201538 C-142.33556636 397.06504148 -142.34622581 394.15883729 -142.36962891 391.25195312 C-142.39806512 387.54051961 -142.38174304 383.83089815 -142.35176659 380.11953163 C-142.33362221 377.25223357 -142.33948465 374.38535876 -142.35240555 371.51804733 C-142.35572275 370.15061601 -142.35171215 368.78314529 -142.34000778 367.41576004 C-142.28593343 359.32074452 -142.45329144 354.23655088 -148.02148438 348.16113281 C-153.0989045 337.26114216 -152.65253043 321.7189184 -148.91992188 310.46972656 C-148.47519531 309.32697266 -148.47519531 309.32697266 -148.02148438 308.16113281 C-147.63863281 307.12666016 -147.63863281 307.12666016 -147.24804688 306.07128906 C-142.97663237 296.17649858 -134.64352254 288.65357808 -125.02148438 284.16113281 C-117.73656658 281.4093182 -110.60497809 280.9342674 -102.90820312 280.93066406 C-102.00311508 280.92956131 -101.09802704 280.92845856 -100.16551208 280.92732239 C-96.38787988 280.93450023 -92.61174641 280.95683974 -88.8347168 281.02709961 C-78.04548591 281.66260728 -78.04548591 281.66260728 -68.17236328 278.32666016 C-66.42663834 276.3362443 -65.13872694 274.55338224 -64.02148438 272.16113281 C-65.12943359 271.74154297 -65.12943359 271.74154297 -66.25976562 271.31347656 C-83.19963494 264.61932236 -94.56336924 255.43972248 -103.02148438 239.16113281 C-104.62627968 235.2208285 -105.94998921 231.27761142 -107.02148438 227.16113281 C-107.21742187 226.41476563 -107.41335937 225.66839844 -107.61523438 224.89941406 C-108.21149729 220.88037271 -108.12560355 216.90490162 -108.08398438 212.84863281 C-108.07947266 212.01267578 -108.07496094 211.17671875 -108.0703125 210.31542969 C-108.05858985 208.26396632 -108.04065641 206.21254008 -108.02148438 204.16113281 C-109.20097656 204.05542969 -110.38046875 203.94972656 -111.59570312 203.84082031 C-124.89127296 202.15073028 -134.64712161 193.13663883 -142.66992188 183.09863281 C-150.19247977 172.15673042 -152.34755546 157.95459356 -150.59570312 145.01660156 C-147.73848885 130.52018311 -140.45419342 118.98971973 -128.47460938 110.31738281 C-122.12473805 106.29448296 -115.62065651 103.16113281 -108.02148438 103.16113281 C-107.93511719 102.20335938 -107.84875 101.24558594 -107.75976562 100.25878906 C-104.7360914 70.28100133 -90.68621454 43.96811307 -67.64648438 24.41113281 C-47.87954562 8.92190499 -25.1493471 0.02763665 0 0 Z M-61.02148438 43.16113281 C-61.65699219 43.71285156 -62.2925 44.26457031 -62.94726562 44.83300781 C-78.33980611 59.12860863 -89.26027958 82.58762311 -90.12334442 103.64653301 C-90.17244673 106.62516089 -90.19091369 109.60251667 -90.19848633 112.58154297 C-90.20505753 113.71260468 -90.21162872 114.84366638 -90.21839905 116.00900269 C-90.23805368 119.739401 -90.24977736 123.46975919 -90.25976562 127.20019531 C-90.26384115 128.4793922 -90.26791668 129.7585891 -90.27211571 131.07654953 C-90.29080059 137.15114103 -90.30537354 143.22571266 -90.31372768 149.30032694 C-90.3234844 156.27661276 -90.34977547 163.25257998 -90.39022857 170.22875369 C-90.42420828 176.30012382 -90.4358873 182.37136162 -90.43993187 188.4428215 C-90.44478325 191.01106298 -90.45635549 193.57930141 -90.47496986 196.14748001 C-90.70254558 221.74573853 -90.70254558 221.74573853 -78.02148438 243.31347656 C-64.32555444 256.44689509 -47.42733992 256.46453142 -29.59179688 256.41992188 C-27.75730247 256.4226369 -25.92280915 256.42620069 -24.08831787 256.43054199 C-19.13793988 256.43960743 -14.18764588 256.436146 -9.23726654 256.42978382 C-4.03789557 256.42469341 1.16146857 256.42942369 6.36083984 256.43255615 C15.08953126 256.43618697 23.81818874 256.43141995 32.546875 256.421875 C42.61480618 256.41099217 52.68265634 256.41451837 62.75058556 256.42552781 C71.42016477 256.43462593 80.08971969 256.43587364 88.75930214 256.43065047 C93.92611645 256.42754464 99.09289277 256.42708312 104.25970459 256.43372345 C109.11893221 256.43953311 113.97805613 256.43543422 118.83727264 256.42393494 C120.61250385 256.42130762 122.3877439 256.42202014 124.1629715 256.42646027 C140.69961855 256.46398371 157.16049702 255.78948017 169.97851562 243.84863281 C179.42865501 233.13370204 182.44360075 221.40587373 182.38256836 207.3659668 C182.38943161 206.24235245 182.39629486 205.1187381 182.40336609 203.96107483 C182.42154436 200.27632713 182.41780734 196.59200915 182.41210938 192.90722656 C182.4166772 190.32047896 182.42198456 187.73373257 182.42799377 185.14698792 C182.43690871 179.73294553 182.43475949 174.31906503 182.42456055 168.9050293 C182.41311809 162.69464319 182.42710114 156.48469093 182.45395702 150.27436203 C182.47901454 144.24888038 182.48125207 138.22361733 182.47484016 132.19807625 C182.4746881 129.6591018 182.48063626 127.12011856 182.49313164 124.58117485 C182.62095079 94.34053361 176.67780215 67.21361825 154.91601562 44.97363281 C139.99620433 30.37467767 118.6205208 18.12813443 97.23295593 18.01396179 C95.84375191 18.00322884 95.84375191 18.00322884 94.42648315 17.99227905 C92.92022873 17.9882457 92.92022873 17.9882457 91.38354492 17.98413086 C90.31611557 17.97755966 89.24868622 17.97098846 88.14891052 17.96421814 C84.61685102 17.94451428 81.08483412 17.93282508 77.55273438 17.92285156 C76.34164316 17.91877604 75.13055195 17.91470051 73.882761 17.91050148 C67.46472978 17.88964692 61.04671987 17.87534602 54.62866211 17.8659668 C48.03312673 17.85494136 41.43793234 17.82058406 34.8425169 17.7807951 C29.74375326 17.75450691 24.6450691 17.74626385 19.54624367 17.74268532 C17.11724371 17.73784597 14.68824667 17.72630878 12.25931358 17.70764732 C-16.16558488 17.50294267 -39.25328165 23.91928748 -61.02148438 43.16113281 Z M199.97851562 121.16113281 C199.97851562 142.61113281 199.97851562 164.06113281 199.97851562 186.16113281 C210.41277454 181.98742924 217.70720553 177.63397659 222.27148438 167.12988281 C225.96311117 156.85043582 225.63509766 148.00485977 220.98242188 138.02441406 C215.97730728 129.20917763 209.36395784 124.68067364 199.97851562 121.16113281 Z M-123.33398438 129.78613281 C-129.5705892 136.43935294 -133.52788329 145.74449935 -133.28710938 154.95410156 C-132.0113789 165.55392096 -127.99861474 173.12711145 -120.02148438 180.16113281 C-116.08026715 183.16033678 -112.84851882 184.9543742 -108.02148438 186.16113281 C-108.02148438 164.71113281 -108.02148438 143.26113281 -108.02148438 121.16113281 C-113.2834583 121.16113281 -119.6842711 126.4010934 -123.33398438 129.78613281 Z M-50.02148438 284.16113281 C-50.93027344 284.91330078 -50.93027344 284.91330078 -51.85742188 285.68066406 C-58.02447815 291.21485649 -62.30120256 299.04882874 -64.02148438 307.16113281 C-64.15256326 310.00509253 -64.23342454 312.82392855 -64.25976562 315.66894531 C-64.26783737 316.50843719 -64.27590912 317.34792908 -64.28422546 318.21286011 C-64.29805205 319.99654084 -64.30878058 321.78024788 -64.31665039 323.56396484 C-64.32804729 325.35375959 -64.34829795 327.1435238 -64.37817383 328.93310547 C-64.80556169 354.58115223 -58.22350567 381.34537659 -40.95898438 401.16113281 C-39.98450438 402.16570043 -39.00620639 403.16660281 -38.02148438 404.16113281 C-33.36055042 403.13742566 -28.70803877 402.09372273 -24.06835938 400.97753906 C-1.12418887 395.51032283 21.473113 392.92741966 45.04101562 392.91113281 C45.92257324 392.91045807 46.80413086 392.90978333 47.71240234 392.90908813 C71.37964536 392.93771441 93.90745947 395.84421825 116.97851562 401.16113281 C118.43934315 401.49104724 119.90027002 401.8205223 121.36132812 402.14941406 C124.23769514 402.80482814 127.11007351 403.47203441 129.97851562 404.16113281 C147.06763849 387.45665259 156.04464729 360.52016673 156.50976562 337.04003906 C156.52977637 334.46512953 156.52534167 331.8924865 156.5 329.31762695 C156.47832063 326.7000896 156.50006585 324.08523485 156.52539062 321.46777344 C156.54731885 308.44025052 154.83229439 298.23686167 145.97851562 288.16113281 C145.47707031 287.55527344 144.975625 286.94941406 144.45898438 286.32519531 C138.97479536 280.21386059 131.06645448 275.75281105 122.97851562 274.16113281 C120.89574261 274.06361035 118.81012208 274.02193404 116.7250824 274.01396179 C115.43970078 274.00680649 114.15431915 273.99965118 112.82998657 273.99227905 C111.40740991 273.98943893 109.98483299 273.98672718 108.56225586 273.98413086 C107.06228987 273.9778634 105.56232543 273.97121635 104.06236267 273.96421814 C99.13728918 273.94320293 94.21221548 273.93281578 89.28710938 273.92285156 C87.58850654 273.91880258 85.88990386 273.91468561 84.19130135 273.91050148 C76.20735074 273.89145269 68.22340934 273.87722293 60.23944038 273.86888951 C51.04050927 273.85912822 41.84181949 273.83283646 32.64297336 273.79238862 C25.52260784 273.76216091 18.40231123 273.74741421 11.28188282 273.7441085 C7.03429863 273.74176494 2.78697235 273.73289591 -1.46054268 273.70764732 C-5.46203702 273.68424573 -9.46310589 273.68018143 -13.46465111 273.69040871 C-14.9258631 273.69090131 -16.3870969 273.68466286 -17.84824371 273.67085266 C-30.54390812 273.55766306 -40.36298999 275.67398774 -50.02148438 284.16113281 Z M-126.29492188 307.19238281 C-133.42806367 315.32610106 -133.67304067 324.78361807 -133.02148438 335.16113281 C-131.90271485 340.34094764 -129.01385037 343.7530155 -125.02148438 347.16113281 C-122.19518267 348.82892014 -120.16651404 349.40888616 -116.89550781 349.38818359 C-116.09497986 349.38803253 -115.2944519 349.38788147 -114.46966553 349.38772583 C-113.6153595 349.37740326 -112.76105347 349.36708069 -111.88085938 349.35644531 C-110.55758636 349.35220047 -110.55758636 349.35220047 -109.20758057 349.34786987 C-106.39540939 349.33669243 -103.58355898 349.31159232 -100.77148438 349.28613281 C-98.86263481 349.27609986 -96.95378025 349.26697456 -95.04492188 349.25878906 C-90.37031949 349.23676105 -85.69595628 349.20224792 -81.02148438 349.16113281 C-81.09149658 348.104021 -81.16150879 347.04690918 -81.23364258 345.95776367 C-82.26819789 330.0822198 -82.23335133 314.94043364 -80.02148438 299.16113281 C-84.27153108 299.08627425 -88.52121572 299.03220114 -92.77172852 298.99633789 C-94.21385393 298.98136773 -95.65593474 298.96098413 -97.09790039 298.93481445 C-108.44455396 298.73423236 -117.65529592 299.06906917 -126.29492188 307.19238281 Z M171.97851562 299.16113281 C172.13215576 300.29115723 172.2857959 301.42118164 172.4440918 302.58544922 C174.54653929 318.24897261 174.01981491 333.43859206 172.97851562 349.16113281 C178.52856411 349.2853591 184.07779144 349.37576599 189.62890625 349.43579102 C191.51446645 349.46083058 193.39993061 349.49487281 195.28515625 349.53833008 C198.00610126 349.59945067 200.72575589 349.62744774 203.44726562 349.64941406 C204.69775696 349.6881237 204.69775696 349.6881237 205.97351074 349.72761536 C212.11907269 349.73051567 216.22881118 348.08977741 220.97851562 344.16113281 C225.9507402 337.58496482 225.46321664 330.09010979 224.97851562 322.16113281 C223.82900494 314.62076453 220.7763706 309.14222647 214.97851562 304.16113281 C208.68767886 300.11199347 203.25618958 299.03294562 195.80664062 299.06347656 C194.78301422 299.06559898 194.78301422 299.06559898 193.7387085 299.06776428 C191.56859879 299.07334197 189.39859392 299.08589027 187.22851562 299.09863281 C185.7532567 299.1036507 184.27799616 299.1082131 182.80273438 299.11230469 C179.19462764 299.12330407 175.58658187 299.14055328 171.97851562 299.16113281 Z M-124.02148438 367.16113281 C-124.02148438 381.35113281 -124.02148438 395.54113281 -124.02148438 410.16113281 C-118.74148437 410.16113281 -113.46148437 410.16113281 -108.02148438 410.16113281 C-108.02148438 395.97113281 -108.02148438 381.78113281 -108.02148438 367.16113281 C-113.30148438 367.16113281 -118.58148438 367.16113281 -124.02148438 367.16113281 Z M199.97851562 367.16113281 C199.97851562 381.35113281 199.97851562 395.54113281 199.97851562 410.16113281 C205.25851562 410.16113281 210.53851563 410.16113281 215.97851562 410.16113281 C215.97851562 395.97113281 215.97851562 381.78113281 215.97851562 367.16113281 C210.69851563 367.16113281 205.41851562 367.16113281 199.97851562 367.16113281 Z M-22.02148438 418.16113281 C-20.70355853 422.11491035 -18.27367797 423.29682604 -14.89648438 425.41113281 C-14.26830811 425.8059082 -13.64013184 426.20068359 -12.99291992 426.60742188 C12.13464574 442.05998614 42.5129422 447.7664293 71.48046875 440.99511719 C86.23263072 437.18852109 102.56915945 430.52135278 113.97851562 420.16113281 C113.97851562 419.50113281 113.97851562 418.84113281 113.97851562 418.16113281 C68.87731837 407.1361049 23.07971288 407.1361049 -22.02148438 418.16113281 Z M-135.02148438 435.16113281 C-140.41158861 442.59364122 -142.07232222 448.94797306 -141.02148438 458.16113281 C-138.71782623 465.58881562 -134.38928915 470.80153792 -128.02148438 475.16113281 C-122.52716042 478.03316579 -116.07363406 477.89287887 -110.02148438 477.16113281 C-102.31199564 474.74246968 -96.81166215 470.34895384 -92.99414062 463.25097656 C-90.04288536 456.41004847 -90.1292862 450.01932589 -92.58398438 443.03613281 C-95.71773055 435.91599573 -100.74603447 431.00804799 -108.02148438 428.16113281 C-117.59629314 425.46054573 -128.01184149 427.95121442 -135.02148438 435.16113281 Z M187.97851562 437.16113281 C183.49145792 443.37298438 182.10828628 449.61914519 182.97851562 457.16113281 C185.32489217 464.91437705 189.44028052 470.96883174 196.54101562 475.03613281 C203.21697451 478.09140077 209.73848593 478.51674794 216.75195312 476.27441406 C223.91616695 473.03653364 227.98217079 468.62146386 231.85351562 461.91113281 C233.96323549 454.87873327 233.94416368 447.71058003 230.94335938 440.93457031 C227.19483354 434.04456736 221.41908013 429.78716619 213.90039062 427.54003906 C203.44421221 425.47855673 194.91206275 429.52168157 187.97851562 437.16113281 Z M11.97851562 457.16113281 C13.04653431 468.57788427 15.73102563 478.52459814 24.22851562 486.66113281 C33.07768664 493.72869037 41.76647072 495.38825754 52.97851562 494.16113281 C61.24744573 492.39756156 67.51530633 487.4782718 72.97851562 481.16113281 C77.76546314 473.77331451 79.05916936 465.79201044 79.97851562 457.16113281 C78.69267578 457.36029297 78.69267578 457.36029297 77.38085938 457.56347656 C76.23746094 457.74007813 75.0940625 457.91667969 73.91601562 458.09863281 C72.22798828 458.35966797 72.22798828 458.35966797 70.50585938 458.62597656 C69.34183594 458.80257813 68.1778125 458.97917969 66.97851562 459.16113281 C65.44517578 459.43376953 65.44517578 459.43376953 63.88085938 459.71191406 C48.77692537 461.45060516 32.86251851 461.10152747 18.00585938 457.81738281 C15.00614097 457.05520595 15.00614097 457.05520595 11.97851562 457.16113281 Z " fill="#000000" transform="translate(210.021484375,-0.1611328125)"/>
<path d="M0 0 C1.06786743 -0.0049649 2.13573486 -0.00992981 3.23596191 -0.01504517 C6.75171568 -0.02959002 10.26742427 -0.03645713 13.78320312 -0.04199219 C14.99154312 -0.04481956 16.19988312 -0.04764694 17.44483948 -0.05056 C23.84343686 -0.06552415 30.24201186 -0.07477025 36.640625 -0.07910156 C43.21247074 -0.08457202 49.78410782 -0.10857815 56.35588837 -0.13707352 C61.4417783 -0.15580749 66.52761914 -0.16091127 71.61354065 -0.16243744 C74.03415564 -0.16544188 76.45477024 -0.17339459 78.87535095 -0.18662262 C103.74315989 -0.31278619 126.38940532 1.87230326 145.31445312 19.91113281 C160.17795439 35.48129816 165.64598146 54.46011717 165.45556641 75.54736328 C165.43946053 77.66016132 165.4555316 79.77104773 165.47460938 81.88378906 C165.50645538 102.17396678 159.52600914 120.52390852 145.31445312 135.41113281 C125.65315343 154.1800891 103.23253796 155.63475268 77.48242188 155.59472656 C74.89756637 155.59929646 72.31271207 155.60460442 69.7278595 155.61061096 C64.32754977 155.61951083 58.92740259 155.61739351 53.52709961 155.60717773 C47.33083201 155.59571346 41.13499813 155.6097619 34.93878764 155.63657421 C28.92237314 155.66161024 22.90617768 155.66387384 16.88970375 155.65745735 C14.35548494 155.65730523 11.82125735 155.66325794 9.28706932 155.67574883 C-14.52904209 155.7766104 -35.90391233 153.70418945 -53.79492188 136.37597656 C-54.85453125 135.27962891 -54.85453125 135.27962891 -55.93554688 134.16113281 C-56.58007812 133.50242188 -57.22460938 132.84371094 -57.88867188 132.16503906 C-75.41267564 113.23149586 -75.76765336 89.37363263 -75.10595703 65.02636719 C-74.20725636 44.64208483 -64.63619262 28.8387403 -49.94726562 15.33300781 C-35.5600034 3.62602784 -18.07188685 0.02033637 0 0 Z M-44.93554688 36.16113281 C-55.03362568 48.76196822 -57.28863525 61.68475366 -57.24804688 77.47363281 C-57.26416016 78.71564453 -57.28027344 79.95765625 -57.296875 81.23730469 C-57.30511349 96.94811379 -53.24669191 110.65736142 -42.49804688 122.47363281 C-30.74849423 133.48659271 -16.3772969 137.47421269 -0.6394043 137.43579102 C1.00151436 137.44345741 1.00151436 137.44345741 2.67558289 137.45127869 C6.27010666 137.46510947 9.86443725 137.46422265 13.45898438 137.46191406 C15.97328258 137.46580483 18.48758012 137.47014028 21.00187683 137.47489929 C26.26469548 137.48234771 31.52746472 137.48221996 36.7902832 137.47680664 C42.84503191 137.47077377 48.89954782 137.48306864 54.95425683 137.50437671 C60.81206649 137.52422219 66.66978604 137.52715392 72.52762413 137.52364159 C75.00456984 137.52415266 77.48151944 137.5293499 79.9584446 137.53945351 C83.43251744 137.55188537 86.90606162 137.54498531 90.38012695 137.53344727 C91.38882843 137.541091 92.39752991 137.54873474 93.4367981 137.55661011 C108.90806334 137.44388554 121.57973892 132.21604362 132.77539062 121.57128906 C144.78771853 108.92349672 147.24689929 94.961758 147.31445312 78.09863281 C147.33507812 76.83857422 147.35570312 75.57851562 147.37695312 74.28027344 C147.44544242 57.7144241 143.03606507 44.57652733 131.54492188 32.45019531 C119.05278492 20.92201853 104.88719253 18.01914084 88.46435547 18 C86.91625687 17.99255264 86.91625687 17.99255264 85.33688354 17.98495483 C81.94137897 17.97041745 78.54592114 17.96354481 75.15039062 17.95800781 C73.40033155 17.95376675 73.40033155 17.95376675 71.61491776 17.94944 C65.439077 17.93448035 59.26325941 17.9252309 53.08740234 17.92089844 C46.73955708 17.91542284 40.39192727 17.89140451 34.0441494 17.86292648 C29.13505453 17.8442109 24.22601061 17.83908974 19.31688309 17.83756256 C16.97834726 17.83455495 14.63981192 17.82659118 12.30131149 17.81337738 C-9.6961372 17.69796395 -29.01532378 19.01846402 -44.93554688 36.16113281 Z " fill="#000000" transform="translate(210.935546875,75.8388671875)"/>
<path d="M0 0 C0.98976837 -0.00428513 1.97953674 -0.00857025 2.9992981 -0.01298523 C5.08529905 -0.01870737 7.17131995 -0.01924446 9.25732422 -0.01489258 C12.42841051 -0.01173558 15.59856025 -0.03520863 18.76953125 -0.06054688 C20.80468633 -0.06282056 22.8398439 -0.06352304 24.875 -0.0625 C25.8127829 -0.07170975 26.7505658 -0.08091949 27.71676636 -0.09040833 C35.00559378 -0.03983292 41.94501506 1.03359363 47.8828125 5.55078125 C53.26339292 11.05649144 55.65492035 16.76389614 55.9453125 24.42578125 C55.72274343 36.44451096 47.84404073 43.7123033 39.96826172 51.83349609 C38.15384923 53.7379004 36.45312289 55.72774308 34.7578125 57.73828125 C29.53549647 63.74839192 24.53655285 68.79051044 16.30078125 69.63671875 C5.01685089 69.76112813 0.19014868 68.02852341 -7.8671875 60.23828125 C-13.08947394 54.89710177 -17.83673818 49.18940693 -22.4296875 43.30078125 C-23.03039062 42.54410156 -23.63109375 41.78742188 -24.25 41.0078125 C-29.76111912 33.91257943 -31.25082845 28.30806581 -30.4296875 19.30078125 C-28.93012502 12.80997431 -25.89821101 8.22074398 -20.6171875 4.11328125 C-13.83568068 0.25713031 -7.63745354 -0.00739074 0 0 Z M-11.01733398 20.14941406 C-12.68298744 22.27375486 -12.68298744 22.27375486 -12.5 25.18359375 C-11.18882375 29.00227495 -9.09590104 31.37398098 -6.3046875 34.17578125 C-5.30135134 35.22325768 -4.29874776 36.2714363 -3.296875 37.3203125 C-2.80670898 37.82643066 -2.31654297 38.33254883 -1.81152344 38.85400391 C0.59970025 41.37854659 2.85690961 44.03395039 5.1328125 46.6796875 C5.6071875 47.21464844 6.0815625 47.74960937 6.5703125 48.30078125 C7.0034375 48.86667969 7.4365625 49.43257813 7.8828125 50.015625 C9.61149153 51.54751171 9.61149153 51.54751171 12.48828125 51.7265625 C16.26132369 51.20531836 17.31499924 50.24952677 19.8828125 47.48828125 C20.6459375 46.67230469 21.4090625 45.85632813 22.1953125 45.015625 C26.11064909 40.54003465 29.87746946 35.96096558 33.5703125 31.30078125 C34.31796875 30.43324219 35.065625 29.56570313 35.8359375 28.671875 C37.8936124 26.36143901 37.8936124 26.36143901 37.5078125 23.11328125 C36.79140421 20.00477417 36.79140421 20.00477417 33.5703125 18.30078125 C31.60251887 17.9862881 31.60251887 17.9862881 29.43774414 18.01025391 C28.61000992 17.9974942 27.7822757 17.9847345 26.92945862 17.97158813 C26.03879196 17.96936249 25.14812531 17.96713684 24.23046875 17.96484375 C23.3119664 17.95818695 22.39346405 17.95153015 21.4471283 17.94467163 C19.5045675 17.93454677 17.56197193 17.92985456 15.61938477 17.93017578 C12.64736658 17.92580267 9.6768335 17.88948199 6.70507812 17.8515625 C4.81771341 17.84569431 2.93034165 17.84172493 1.04296875 17.83984375 C0.15432632 17.82547272 -0.7343161 17.81110168 -1.64988708 17.79629517 C-6.67012759 17.81458655 -6.67012759 17.81458655 -11.01733398 20.14941406 Z " fill="#000000" transform="translate(243.4296875,297.69921875)"/>
<path d="M0 0 C0.63164062 0.41378906 1.26328125 0.82757813 1.9140625 1.25390625 C2.60757813 1.67800781 3.30109375 2.10210937 4.015625 2.5390625 C11.72151364 7.7196131 16.12938482 14.91621207 18.44140625 23.83203125 C19.4249187 28.87151654 19.93088176 32.6608894 17.0390625 37.19140625 C14.31900249 39.83146449 13.41191404 40.1975457 9.6015625 40.62890625 C5.9140625 40.25390625 5.9140625 40.25390625 3.1640625 38.50390625 C0.37866341 34.48055201 -0.24862626 30.80515681 -1.27734375 26.07421875 C-2.55799283 21.60741376 -5.04363719 19.45778854 -8.94140625 17.16015625 C-12.87921061 15.4960932 -16.89872393 15.72387922 -21.0859375 16.25390625 C-25.96588456 18.60351039 -28.60343645 21.46622565 -31.0859375 26.25390625 C-31.43842149 27.95443971 -31.74856673 29.66411615 -32.0234375 31.37890625 C-32.63375232 34.87243244 -32.93682254 36.0749683 -35.2734375 38.87890625 C-38.91596767 40.65969878 -41.0777835 40.89807386 -45.0859375 40.25390625 C-48.0234375 38.50390625 -48.0234375 38.50390625 -50.0859375 35.25390625 C-51.4065208 27.38832676 -50.04815109 20.13564564 -46.0859375 13.25390625 C-35.8119854 -0.81799971 -16.52970738 -9.15835139 0 0 Z " fill="#000000" transform="translate(323.0859375,130.74609375)"/>
<path d="M0 0 C7.90861334 5.82449359 13.39410056 12.42298886 16 22 C16.77877221 27.74433815 17.10124804 32.26470006 13.9375 37.25 C10.22835396 39.45970402 8.25337364 39.68357791 4 39 C1.25 37.75 1.25 37.75 -1 35 C-1.87758844 31.99727092 -2.53144018 28.97934495 -3.19140625 25.921875 C-4.47251607 21.29255063 -6.68739358 18.39922405 -10.859375 15.875 C-15.32931008 14.04787325 -20.55389329 14.15886665 -25.1015625 15.72265625 C-29.0815838 17.81428447 -30.99517208 20.07434533 -33 24 C-33.82505215 27.06903458 -34.44071231 30.14120299 -35.05859375 33.2578125 C-36.15452754 36.45011757 -37.07122875 37.39511981 -40 39 C-44.24649943 39.54046356 -46.25823192 39.48376179 -49.875 37.125 C-52.69020324 34.30979676 -52.96149773 33.53903172 -53.25 29.5 C-53.08909582 20.60199858 -49.74489108 12.73151367 -44 6 C-32.45098671 -5.01433675 -14.18956359 -8.83940027 0 0 Z " fill="#000000" transform="translate(223,132)"/>
</svg>
